<svg width="620" height="416" viewBox="0 0 620 416" fill="none" xmlns="http://www.w3.org/2000/svg">
<path d="M309.985 416C424.86 416 517.985 322.875 517.985 208C517.985 93.1248 424.86 0 309.985 0C195.11 0 101.985 93.1248 101.985 208C101.985 322.875 195.11 416 309.985 416Z" fill="white"/>
<rect x="348.63" y="84.4089" width="64.9736" height="64.9736" stroke="#FDD663"/>
<rect x="353.155" y="51.3346" width="11.1943" height="11.1943" rx="5.59713" transform="rotate(-90 353.155 51.3346)" fill="#FEEFC3"/>
<mask id="mask0" mask-type="alpha" maskUnits="userSpaceOnUse" x="379" y="56" width="43" height="43">
<path d="M379.438 56.6927L421.246 56.6927L379.438 98.5003L379.438 56.6927Z" fill="#FBBC04"/>
</mask>
<g mask="url(#mask0)">
<path d="M379.438 56.6927L421.246 56.6927L379.438 98.5003L379.438 56.6927Z" fill="#FDD663"/>
<rect x="359.256" y="97.7798" width="87.1581" height="15.5457" transform="rotate(-45 359.256 97.7798)" fill="#FBBC04"/>
</g>
<path d="M380.017 121.814L380.017 262.206" stroke="#DADDE5" stroke-width="2" stroke-dasharray="6 6"/>
<path d="M384.414 119.615C384.414 122.044 382.445 124.013 380.016 124.013C377.587 124.013 375.618 122.044 375.618 119.615C375.618 117.186 377.587 115.216 380.016 115.216C382.445 115.216 384.414 117.186 384.414 119.615Z" fill="#DADDE5"/>
<path d="M382.216 119.614C382.216 120.829 381.231 121.813 380.017 121.813C378.802 121.813 377.817 120.829 377.817 119.614C377.817 118.4 378.802 117.415 380.017 117.415C381.231 117.415 382.216 118.4 382.216 119.614Z" fill="white"/>
<path d="M229.376 271.354H148.669" stroke="#DADDE5" stroke-width="2" stroke-dasharray="6 6"/>
<path d="M146.471 275.753C148.9 275.753 150.869 273.784 150.869 271.355C150.869 268.926 148.9 266.957 146.471 266.957C144.042 266.957 142.073 268.926 142.073 271.355C142.073 273.784 144.042 275.753 146.471 275.753Z" fill="#DADDE5"/>
<path d="M146.471 273.554C147.685 273.554 148.67 272.57 148.67 271.355C148.67 270.14 147.685 269.156 146.471 269.156C145.256 269.156 144.272 270.14 144.272 271.355C144.272 272.57 145.256 273.554 146.471 273.554Z" fill="white"/>
<path d="M289.853 164.696H207.386" stroke="#DADDE5" stroke-width="2" stroke-dasharray="6 6"/>
<path d="M288.754 238.367L288.754 164.696" stroke="#DADDE5" stroke-width="2" stroke-dasharray="6 6"/>
<path d="M287.654 165.192L287.654 163.598L289.853 163.598L289.853 165.797L288.274 165.797L288.274 165.192L287.654 165.192Z" fill="#DADDE5"/>
<path d="M200.788 164.697C200.788 167.126 202.757 169.095 205.186 169.095C207.616 169.095 209.585 167.126 209.585 164.697C209.585 162.268 207.616 160.299 205.186 160.299C202.757 160.299 200.788 162.268 200.788 164.697Z" fill="#DADDE5"/>
<path d="M202.987 164.697C202.987 165.912 203.972 166.896 205.186 166.896C206.401 166.896 207.385 165.912 207.385 164.697C207.385 163.482 206.401 162.498 205.186 162.498C203.972 162.498 202.987 163.482 202.987 164.697Z" fill="white"/>
<path d="M504.268 228.472L504.268 313.138" stroke="#DADDE5" stroke-width="2" stroke-dasharray="6 6"/>
<path d="M503.773 312.039L505.367 312.039L505.367 314.238L503.168 314.238L503.168 312.66L503.773 312.66L503.773 312.039Z" fill="#DADDE5"/>
<path d="M428.397 313.138L504.267 313.138" stroke="#DADDE5" stroke-width="2" stroke-dasharray="6 6"/>
<path d="M345.784 314.711L343.731 314.711L343.731 312.328L345.784 312.328L345.784 314.711Z" fill="#DADDE5"/>
<path d="M504.267 221.875C501.838 221.875 499.869 223.844 499.869 226.273C499.869 228.702 501.838 230.672 504.267 230.672C506.696 230.672 508.666 228.702 508.666 226.273C508.666 223.844 506.696 221.875 504.267 221.875Z" fill="#DADDE5"/>
<path d="M504.268 224.075C503.053 224.075 502.069 225.06 502.069 226.274C502.069 227.489 503.053 228.473 504.268 228.473C505.482 228.473 506.467 227.489 506.467 226.274C506.467 225.06 505.482 224.075 504.268 224.075Z" fill="white"/>
<path d="M161.179 191.685C146.294 191.685 134.216 179.604 134.216 164.701C134.216 149.787 146.295 137.707 161.179 137.707C176.084 137.707 188.194 149.788 188.194 164.701C188.194 179.603 176.084 191.685 161.179 191.685Z" fill="white" stroke="#E8EAED"/>
<mask id="mask1" mask-type="alpha" maskUnits="userSpaceOnUse" x="149" y="153" width="24" height="21">
<path d="M160.787 153.454L172.122 173.088H149.452L160.787 153.454Z" fill="#34A853"/>
</mask>
<g mask="url(#mask1)">
<path d="M160.787 153.454L172.122 173.088H149.452L160.787 153.454Z" fill="#1E8E3E"/>
<rect x="160.786" y="153.455" width="11.3436" height="20.0695" fill="#34A853"/>
</g>
<path fill-rule="evenodd" clip-rule="evenodd" d="M387.068 290.79H384.913C380.606 277.868 368.77 269.248 354.774 269.248C348.32 269.248 341.862 271.401 336.479 274.635C326.79 258.475 309.567 247.707 290.197 247.707C263.285 247.707 241.755 266.015 237.453 290.79H236.377C218.078 290.79 204.087 304.792 204.087 323.108C204.087 341.416 218.078 355.423 236.377 355.423H387.068C405.363 355.423 419.359 341.416 419.359 323.108C419.359 304.792 405.363 290.79 387.068 290.79Z" fill="#448AFF"/>
<path opacity="0.300056" fill-rule="evenodd" clip-rule="evenodd" d="M416.174 337.474C411.037 348.258 400.149 355.426 387.061 355.426H236.369C223.278 355.426 212.392 348.258 207.255 337.474H416.174Z" fill="#1967D2"/>
<path d="M541.984 207.636H501.142C499.497 207.636 498.031 206.132 498.031 204.342V161.441C498.031 159.651 499.497 158.147 501.142 158.147H541.984C543.63 158.147 545.096 159.651 545.096 161.441V204.342C545.096 206.265 543.642 207.636 541.984 207.636Z" fill="white" stroke="#E8EAED"/>
<path d="M539.901 191.792C539.901 192.522 539.345 192.959 538.512 192.959H503.921C503.227 192.959 502.532 192.376 502.532 191.792V165.964C502.532 165.234 503.088 164.797 503.921 164.797H538.512C539.206 164.797 539.901 165.38 539.901 165.964V191.792Z" fill="#F8BB2D"/>
<path opacity="0.15" d="M521.146 164.651H538.65C539.344 164.651 540.039 165.234 540.039 165.818V191.646C540.039 192.376 539.483 192.813 538.65 192.813H521.146V164.651Z" fill="white"/>
<g opacity="0.75">
<g opacity="0.75">
<g opacity="0.75">
<path opacity="0.75" d="M533.232 190.771C533.232 186.101 528.648 182.891 521.424 182.891C514.201 182.891 509.616 186.101 509.616 190.771V194.419H533.094L533.232 190.771Z" fill="#EFF0F2"/>
<path opacity="0.75" d="M526.425 175.011C526.425 178.076 524.064 180.556 521.147 180.556C518.229 180.556 515.868 178.076 515.868 175.011C515.868 171.947 518.229 169.466 521.147 169.466C524.064 169.466 526.425 171.947 526.425 175.011Z" fill="#EFF0F2"/>
</g>
</g>
</g>
<path opacity="0.75" d="M534.206 201.86H509.062V198.503H534.206V201.86Z" fill="#CDD0D5"/>
<path d="M513.843 175.219H476.115V157.502H515.125V174.34C515.125 174.779 514.555 175.219 513.843 175.219Z" fill="url(#paint0_linear)"/>
<path d="M507.161 179.104H466.091C464.149 179.104 462.484 177.355 462.484 175.316V132.197C462.484 130.157 464.149 128.409 466.091 128.409H507.161C509.103 128.409 510.768 130.157 510.768 132.197V175.316C510.768 177.501 509.103 179.104 507.161 179.104Z" fill="#DFE1E5"/>
<path d="M507.161 178.604H466.091C464.448 178.604 462.984 177.103 462.984 175.316V132.197C462.984 130.41 464.448 128.909 466.091 128.909H507.161C508.804 128.909 510.268 130.41 510.268 132.197V175.316C510.268 177.235 508.817 178.604 507.161 178.604Z" fill="white" stroke="#E8EAED"/>
<path d="M505.079 162.643C505.079 163.372 504.524 163.809 503.692 163.809H468.866C468.172 163.809 467.479 163.226 467.479 162.643V136.714C467.479 135.985 468.034 135.548 468.866 135.548H503.692C504.386 135.548 505.079 136.131 505.079 136.714V162.643Z" fill="#188038"/>
<path opacity="0.45" d="M467.617 140.939C467.617 140.939 468.727 139.774 470.808 140.502C472.889 141.085 473.028 142.687 473.028 142.687C473.028 142.687 473.305 142.396 474.832 142.687C477.607 143.27 477.052 145.892 477.052 145.892H467.617V140.939Z" fill="#EFF0F2"/>
<path opacity="0.1" d="M503.831 135.548H486.626V163.954H503.831C504.524 163.954 505.218 163.372 505.218 162.789V136.714C505.079 135.985 504.524 135.548 503.831 135.548Z" fill="white"/>
<path opacity="0.45" d="M505.078 140.356C504.801 140.356 504.523 140.356 504.107 140.501C502.026 141.084 501.887 142.686 501.887 142.686C501.887 142.686 501.194 142.395 499.806 142.686C497.031 143.269 496.892 145.891 496.892 145.891H504.94V140.356H505.078Z" fill="#EFF0F2"/>
<path opacity="0.45" d="M496.061 152.592C492.731 153.321 489.123 157.982 487.32 158.274C483.712 158.856 478.856 149.242 474.694 151.864C471.919 153.612 469.56 156.234 467.756 158.274V162.79C467.756 163.518 468.311 163.955 469.144 163.955H503.969C504.663 163.955 505.357 163.372 505.357 162.79V158.128C502.859 155.652 498.697 152.01 496.061 152.592Z" fill="#EFF0F2"/>
<g opacity="0.45">
<g opacity="0.45">
<path opacity="0.45" d="M490.371 143.123C490.371 145.308 488.706 147.202 486.487 147.202C484.267 147.202 482.602 145.454 482.602 143.123C482.602 140.938 484.267 139.044 486.487 139.044C488.706 139.044 490.371 140.938 490.371 143.123Z" fill="#EFF0F2"/>
</g>
</g>
<path opacity="0.75" d="M472.75 168.908H499.39V172.404H472.75V168.908Z" fill="#CDD0D5"/>
<path fill-rule="evenodd" clip-rule="evenodd" d="M212.114 86.4767C213.284 89.6701 216.406 91.7284 219.794 91.7284C220.895 91.7284 221.968 92.3703 222.287 93.4311C222.808 95.1367 221.551 96.7017 219.931 96.7017H124.534C123.026 96.7017 121.835 95.3516 122.09 93.7948C122.285 92.5715 123.43 91.7284 124.671 91.7284H128.106C131.208 91.7284 133.948 89.8933 135.392 87.1353C138.382 81.418 144.343 77.522 151.22 77.522C156.525 77.522 161.272 79.8475 164.545 83.5313C168.863 75.1001 177.6 69.3333 187.69 69.3333C198.927 69.3333 208.476 76.475 212.114 86.4767Z" fill="#F8F9FA"/>
<path d="M75.5 271.33C75.5 256.441 87.5831 244.365 102.486 244.365C117.395 244.365 129.478 256.441 129.478 271.33C129.478 286.236 117.394 298.343 102.486 298.343C87.5841 298.343 75.5 286.236 75.5 271.33Z" fill="white" stroke="#E8EAED"/>
<path fill-rule="evenodd" clip-rule="evenodd" d="M102.246 260.674C100.383 260.674 98.8526 262.154 98.6781 264.047L98.6615 264.047V271.035H95.0774V264.047L95.0813 264.047C95.2073 260.166 98.3666 257.059 102.246 257.059C106.125 257.059 109.284 260.166 109.41 264.047L109.414 264.047V271.035H105.83V264.047L105.813 264.047C105.639 262.154 104.108 260.674 102.246 260.674Z" fill="#CFD8DC"/>
<path fill-rule="evenodd" clip-rule="evenodd" d="M102.246 257.059C106.125 257.059 109.284 260.166 109.41 264.047L109.414 264.047V271.035H105.83V264.047L105.813 264.047C105.639 262.154 104.108 260.674 102.246 260.674V257.059Z" fill="#C4D1D6"/>
<path opacity="0.442652" d="M98.6615 265.732H95.0774V268.383H98.6615V265.732Z" fill="#B5BFC3"/>
<path opacity="0.442652" d="M109.414 265.732H105.83V268.383H109.414V265.732Z" fill="#B5BFC3"/>
<path d="M109.007 267.179H95.2467C93.1741 267.179 91.4939 268.859 91.4939 270.932V282.462C91.4939 284.534 93.1741 286.215 95.2467 286.215H109.007C111.08 286.215 112.76 284.534 112.76 282.462V270.932C112.76 268.859 111.08 267.179 109.007 267.179Z" fill="#FFC51A"/>
<path opacity="0.378906" fill-rule="evenodd" clip-rule="evenodd" d="M102.008 267.179H109.007C111.08 267.179 112.76 268.859 112.76 270.932V282.462C112.76 284.534 111.08 286.215 109.007 286.215H102.008V267.179Z" fill="#FD8D00"/>
<path style="mix-blend-mode:multiply" opacity="0.504133" fill-rule="evenodd" clip-rule="evenodd" d="M105.634 278.124L112.218 284.905C111.202 285.691 110.446 286.119 109.95 286.188C109.454 286.258 106.642 286.258 101.516 286.188L97.7402 282.604L105.634 278.124Z" fill="url(#paint1_linear)"/>
<path style="mix-blend-mode:multiply" opacity="0.27791" fill-rule="evenodd" clip-rule="evenodd" d="M104.2 271.827L111.086 278.932L103.793 279.231L99.7988 274.922L104.2 271.827Z" fill="url(#paint2_linear)"/>
<path d="M102.127 276.335C103.644 276.335 104.875 275.095 104.875 273.564C104.875 272.034 103.644 270.793 102.127 270.793C100.609 270.793 99.3789 272.034 99.3789 273.564C99.3789 275.095 100.609 276.335 102.127 276.335Z" fill="white"/>
<path fill-rule="evenodd" clip-rule="evenodd" d="M100.322 277.299H103.821C105.319 277.299 106.533 278.514 106.533 280.011V282.098C106.533 282.444 106.253 282.724 105.908 282.724H98.0971C97.7517 282.724 97.4717 282.444 97.4717 282.098C97.4717 282.092 97.4718 282.086 97.4719 282.08L97.5312 280.011C97.5744 278.501 98.8112 277.299 100.322 277.299Z" fill="#FCFCFC"/>
<defs>
<linearGradient id="paint0_linear" x1="516.026" y1="166.342" x2="484.408" y2="166.342" gradientUnits="userSpaceOnUse">
<stop offset="0.00090888" stop-color="#676C72" stop-opacity="0"/>
<stop offset="1" stop-color="#676C72"/>
</linearGradient>
<linearGradient id="paint1_linear" x1="109.685" y1="283.458" x2="103.153" y2="276.274" gradientUnits="userSpaceOnUse">
<stop stop-color="white" stop-opacity="0"/>
<stop offset="1" stop-color="#565656"/>
</linearGradient>
<linearGradient id="paint2_linear" x1="107.225" y1="277.121" x2="103.408" y2="272.859" gradientUnits="userSpaceOnUse">
<stop stop-color="white" stop-opacity="0"/>
<stop offset="1" stop-color="#565656"/>
</linearGradient>
</defs>
</svg>
